<svg width="448" height="512" viewBox="0 0 448 512" fill="none" xmlns="http://www.w3.org/2000/svg">
<path d="M416 32H31.9C14.3 32 0 46.5 0 64.3V447.7C0 465.5 14.3 480 31.9 480H416C433.6 480 448 465.5 448 447.7V64.3C448 46.5 433.6 32 416 32ZM135.4 416H69V202.2H135.5V416H135.4ZM102.2 173C80.9 173 63.7 155.7 63.7 134.5C63.7 113.3 80.9 96 102.2 96C123.4 96 140.7 113.3 140.7 134.5C140.7 155.8 123.5 173 102.2 173ZM384.3 416H317.9V312C317.9 287.2 317.4 255.3 283.4 255.3C248.8 255.3 243.5 282.3 243.5 310.2V416H177.1V202.2H240.8V231.4H241.7C250.6 214.6 272.3 196.9 304.6 196.9C371.8 196.9 384.3 241.2 384.3 298.8V416Z" fill="#691BFC" fill-opacity="0.6"/>
<path fill-rule="evenodd" clip-rule="evenodd" d="M69.3 202.2V416H135.7H135.8V202.2H69.3ZM64 134.5C64 155.7 81.2 173 102.5 173C123.8 173 141 155.8 141 134.5C141 113.3 123.7 96 102.5 96C81.2 96 64 113.3 64 134.5ZM318.2 416H384.6V298.8C384.6 241.2 372.1 196.9 304.9 196.9C272.6 196.9 250.9 214.6 242 231.4H241.1V202.2H177.4V416H243.8V310.2C243.8 282.3 249.1 255.3 283.7 255.3C317.7 255.3 318.2 287.2 318.2 312V416Z" fill="white"/>
</svg>
