<svg width="448" height="512" viewBox="0 0 448 512" fill="none" xmlns="http://www.w3.org/2000/svg">
<rect y="32" width="448" height="448" rx="70" fill="#D9D9D9"/>
<path fill-rule="evenodd" clip-rule="evenodd" d="M64 32C47.0261 32 30.7475 38.7428 18.7452 50.7452C6.74284 62.7475 0 79.0261 0 96V416C0 432.974 6.74284 449.252 18.7452 461.255C30.7475 473.257 47.0261 480 64 480H384C400.974 480 417.252 473.257 429.255 461.255C441.257 449.252 448 432.974 448 416V96C448 79.0261 441.257 62.7475 429.255 50.7452C417.252 38.7428 400.974 32 384 32H64ZM99.264 169.504C109.406 169.504 119.132 165.475 126.304 158.304C133.475 151.132 137.504 141.406 137.504 131.264C137.504 121.122 133.475 111.396 126.304 104.224C119.132 97.0528 109.406 93.024 99.264 93.024C89.1221 93.024 79.3956 97.0528 72.2242 104.224C65.0528 111.396 61.024 121.122 61.024 131.264C61.024 141.406 65.0528 151.132 72.2242 158.304C79.3956 165.475 89.1221 169.504 99.264 169.504ZM131.264 410.016V199.488H67.264V410.016H131.264ZM173.76 199.488H237.76V227.68C247.2 212.896 267.936 192.992 306.496 192.992C352.512 192.992 377.504 223.488 377.504 281.504C377.504 284.288 377.76 296.992 377.76 296.992V409.984H313.76V297.024C313.76 281.504 310.496 251.008 276 251.008C241.472 251.008 238.56 289.344 237.76 314.432V409.984H173.76V199.488Z" fill="black"/>
</svg>
